<svg width="18" height="18" viewBox="0 0 18 18" fill="none" xmlns="http://www.w3.org/2000/svg">
<path d="M9 15C12.3137 15 15 12.3137 15 9C15 5.68629 12.3137 3 9 3M9 15C5.68629 15 3 12.3137 3 9C3 5.68629 5.68629 3 9 3M9 15C7.55025 15 6.375 12.3137 6.375 9C6.375 5.68629 7.55025 3 9 3M9 15C10.4497 15 11.625 12.3137 11.625 9C11.625 5.68629 10.4497 3 9 3M4.125 11.9163C5.22422 11.2868 7.05049 10.875 9.11757 10.875C11.275 10.875 13.17 11.3236 14.25 12M4.125 6.08372C5.22422 6.71317 7.05049 7.125 9.11757 7.125C11.275 7.125 13.17 6.6764 14.25 6" stroke="#1E1E1E"/>
</svg>
