<svg width="18" height="18" viewBox="0 0 18 18" fill="none" xmlns="http://www.w3.org/2000/svg">
<path d="M13.0526 11.6053V6.39474M11.6053 13.0526H6.68421M4.94737 11.4605V6.53947M6.39474 4.94737H11.4605M4.07895 6.39474H5.81579C6.13553 6.39474 6.39474 6.13553 6.39474 5.81579V4.07895C6.39474 3.7592 6.13553 3.5 5.81579 3.5H4.07895C3.7592 3.5 3.5 3.7592 3.5 4.07895V5.81579C3.5 6.13553 3.7592 6.39474 4.07895 6.39474ZM12.1842 6.39474H13.9211C14.2408 6.39474 14.5 6.13553 14.5 5.81579V4.07895C14.5 3.7592 14.2408 3.5 13.9211 3.5H12.1842C11.8645 3.5 11.6053 3.7592 11.6053 4.07895V5.81579C11.6053 6.13553 11.8645 6.39474 12.1842 6.39474ZM4.07895 14.5H5.81579C6.13553 14.5 6.39474 14.2408 6.39474 13.9211V12.1842C6.39474 11.8645 6.13553 11.6053 5.81579 11.6053H4.07895C3.7592 11.6053 3.5 11.8645 3.5 12.1842V13.9211C3.5 14.2408 3.7592 14.5 4.07895 14.5ZM12.1842 14.5H13.9211C14.2408 14.5 14.5 14.2408 14.5 13.9211V12.1842C14.5 11.8645 14.2408 11.6053 13.9211 11.6053H12.1842C11.8645 11.6053 11.6053 11.8645 11.6053 12.1842V13.9211C11.6053 14.2408 11.8645 14.5 12.1842 14.5Z" stroke="#1E1E1E" stroke-linecap="round"/>
</svg>
