<svg width="24" height="24" viewBox="0 0 24 24" fill="none" xmlns="http://www.w3.org/2000/svg">
<path fill-rule="evenodd" clip-rule="evenodd" d="M8.28033 7.21967C7.98744 6.92678 7.51256 6.92678 7.21967 7.21967C6.92678 7.51256 6.92678 7.98744 7.21967 8.28033L10.8893 11.95L7.21967 15.6197C6.92678 15.9126 6.92678 16.3874 7.21967 16.6803C7.51256 16.9732 7.98744 16.9732 8.28033 16.6803L11.95 13.0107L15.6197 16.6803C15.9126 16.9732 16.3874 16.9732 16.6803 16.6803C16.9732 16.3874 16.9732 15.9126 16.6803 15.6197L13.0107 11.95L16.6803 8.28033C16.9732 7.98744 16.9732 7.51256 16.6803 7.21967C16.3874 6.92678 15.9126 6.92678 15.6197 7.21967L11.95 10.8893L8.28033 7.21967Z" fill="#96A6AE"/>
</svg>
