<svg width="24" height="24" viewBox="0 0 24 24" fill="none" xmlns="http://www.w3.org/2000/svg">
<g clip-path="url(#clip0_2205_25350)">
<path d="M6 11V15.5C6 16.8785 7.1215 18 8.5 18H15.5C16.8785 18 18 16.8785 18 15.5V11H6ZM13.5 15H10.5C10.224 15 10 14.776 10 14.5C10 14.224 10.224 14 10.5 14H13.5C13.776 14 14 14.224 14 14.5C14 14.776 13.776 15 13.5 15ZM6 10V9.5C6 8.1215 7.1215 7 8.5 7H9V6.5C9 6.224 9.224 6 9.5 6C9.776 6 10 6.224 10 6.5V7H14V6.5C14 6.224 14.224 6 14.5 6C14.776 6 15 6.224 15 6.5V7H15.5C16.8785 7 18 8.1215 18 9.5V10H6Z" fill="#96A6AE"/>
</g>
<defs>
<clipPath id="clip0_2205_25350">
<rect width="12" height="12" fill="white" transform="translate(6 6)"/>
</clipPath>
</defs>
</svg>
