<svg width="41" height="40" viewBox="0 0 41 40" fill="none" xmlns="http://www.w3.org/2000/svg">
<path d="M28.9563 13.6851C28.4996 13.5993 28.1257 13.3302 27.9325 12.9453C25.7939 8.69227 20.8363 6.31416 15.8816 7.1749C11.367 7.95504 7.82783 11.3512 7.07309 15.6277C6.84957 16.8902 6.86613 18.154 7.11863 19.3853C7.20141 19.7871 7.0179 20.2344 6.64122 20.5568C5.06138 21.9104 4.15625 23.8386 4.15625 25.8488C4.15625 29.791 7.56015 33 11.745 33H26.9225C32.6293 33 37.2708 28.626 37.2708 23.2483C37.2708 18.613 33.7745 14.5901 28.9563 13.6851ZM25.0198 22.2172C24.7508 22.4708 24.3975 22.5982 24.0443 22.5982C23.6911 22.5982 23.3379 22.4708 23.0688 22.2172L20.7135 19.9977V26.4989C20.7135 27.2179 20.0954 27.7991 19.3338 27.7991C18.5721 27.7991 17.954 27.2179 17.954 26.4989V19.9977L15.5987 22.2172C15.0592 22.7256 14.1872 22.7256 13.6477 22.2172C13.1082 21.7088 13.1082 20.8871 13.6477 20.3787L17.3828 16.859C17.9154 16.3571 18.6149 16.1049 19.3144 16.101L19.3338 16.0971L19.3531 16.101C20.054 16.1049 20.7522 16.3571 21.2848 16.859L25.0198 20.3787C25.5593 20.8871 25.5593 21.7088 25.0198 22.2172Z" fill="#ADB9C0"/>
</svg>
