<svg width="12" height="12" viewBox="0 0 12 12" fill="none" xmlns="http://www.w3.org/2000/svg">
<path fill-rule="evenodd" clip-rule="evenodd" d="M4.11309 0.566117C4.11309 0.253459 4.36655 0 4.67921 0H7.50979C7.82245 0 8.07591 0.253459 8.07591 0.566117C8.07591 0.878775 7.82245 1.13223 7.50979 1.13223H4.67921C4.36655 1.13223 4.11309 0.878775 4.11309 0.566117ZM2.27145 3.47659H1.56612C1.25346 3.47659 1 3.22313 1 2.91047C1 2.59781 1.25346 2.34435 1.56612 2.34435H10.624C10.9366 2.34435 11.1901 2.59781 11.1901 2.91047C11.1901 3.22313 10.9366 3.47659 10.624 3.47659H9.91976L9.32801 10.483C9.29087 10.9227 8.92313 11.2607 8.48184 11.2607H6.09561H3.70937C3.26808 11.2607 2.90034 10.9227 2.8632 10.483L2.27145 3.47659Z" fill="#7F929C"/>
</svg>
