<svg width="12" height="12" viewBox="0 0 12 12" fill="none" xmlns="http://www.w3.org/2000/svg">
<rect x="5.14288" y="1.71428" width="6.85714" height="8.57143" rx="1" fill="white"/>
<rect x="5.14288" y="3.42857" width="2.57143" height="1.02857" rx="0.514286" fill="#369975"/>
<rect x="8.57141" y="3.42857" width="1.71429" height="1.02857" rx="0.514286" fill="#369975"/>
<rect x="5.14288" y="5.4857" width="2.57143" height="1.02857" rx="0.514286" fill="#369975"/>
<rect x="8.57141" y="5.4857" width="1.71429" height="1.02857" rx="0.514286" fill="#369975"/>
<rect x="5.14288" y="7.54285" width="2.57143" height="1.02857" rx="0.514286" fill="#369975"/>
<rect x="8.57141" y="7.54285" width="1.71429" height="1.02857" rx="0.514286" fill="#369975"/>
<path d="M0 2.46859C0 2.02211 0.295977 1.62972 0.725279 1.50706L4.72528 0.364206C5.3641 0.181687 6 0.661351 6 1.32573V10.6743C6 11.3386 5.3641 11.8183 4.72528 11.6358L0.725279 10.4929C0.295977 10.3703 0 9.97789 0 9.53141V2.46859Z" fill="#369975"/>
<path d="M3.85717 4.28572L2.14288 7.37144M2.14288 4.62858L3.85717 7.71429" stroke="white" stroke-linecap="round" stroke-linejoin="round"/>
</svg>
