<svg width="18" height="18" viewBox="0 0 18 18" fill="none" xmlns="http://www.w3.org/2000/svg">
<path d="M8.4281 14.8492C8.74972 15.1637 9.25028 15.1637 9.5719 14.8492C10.8843 13.5659 14 10.2422 14 7.61091C14 4.84949 11.7614 2.61092 9 2.61092C6.23858 2.61092 4 4.84949 4 7.61091C4 10.2422 7.11573 13.5659 8.4281 14.8492Z" stroke="#1E1E1E"/>
<path d="M10.5974 7.40268C10.5974 8.2848 9.88233 8.99991 9.0002 8.99991C8.11808 8.99991 7.40298 8.2848 7.40298 7.40268C7.40298 6.52056 8.11808 5.80546 9.0002 5.80546C9.88233 5.80546 10.5974 6.52056 10.5974 7.40268Z" stroke="#1E1E1E"/>
</svg>
