<svg width="24" height="24" viewBox="0 0 24 24" fill="none" xmlns="http://www.w3.org/2000/svg">
<g clip-path="url(#clip0_2089_5014)">
<path d="M15.5 8C15.5 7.46957 15.2893 6.96086 14.9142 6.58579C14.5391 6.21071 14.0304 6 13.5 6H10.5C9.96957 6 9.46086 6.21071 9.08579 6.58579C8.71071 6.96086 8.5 7.46957 8.5 8V8.5H15.5V8Z" fill="#96A6AE"/>
<path d="M14 13.5H10C9.17157 13.5 8.5 14.1716 8.5 15V16.5C8.5 17.3284 9.17157 18 10 18H14C14.8284 18 15.5 17.3284 15.5 16.5V15C15.5 14.1716 14.8284 13.5 14 13.5Z" fill="#96A6AE"/>
<path d="M15.5 9.5H8.5C7.8372 9.5008 7.20178 9.76444 6.73311 10.2331C6.26444 10.7018 6.00079 11.3372 6 12V14C6.00064 14.4859 6.14285 14.9611 6.40925 15.3674C6.67565 15.7737 7.05468 16.0937 7.5 16.288V15C7.50079 14.3372 7.76444 13.7018 8.23311 13.2331C8.70178 12.7644 9.3372 12.5008 10 12.5H14C14.6628 12.5008 15.2982 12.7644 15.7669 13.2331C16.2356 13.7018 16.4992 14.3372 16.5 15V16.288C16.9453 16.0937 17.3244 15.7737 17.5908 15.3674C17.8571 14.9611 17.9994 14.4859 18 14V12C17.9992 11.3372 17.7356 10.7018 17.2669 10.2331C16.7982 9.76444 16.1628 9.5008 15.5 9.5ZM15 11.5H14C13.8674 11.5 13.7402 11.4473 13.6464 11.3536C13.5527 11.2598 13.5 11.1326 13.5 11C13.5 10.8674 13.5527 10.7402 13.6464 10.6465C13.7402 10.5527 13.8674 10.5 14 10.5H15C15.1326 10.5 15.2598 10.5527 15.3536 10.6465C15.4473 10.7402 15.5 10.8674 15.5 11C15.5 11.1326 15.4473 11.2598 15.3536 11.3536C15.2598 11.4473 15.1326 11.5 15 11.5Z" fill="#96A6AE"/>
</g>
<defs>
<clipPath id="clip0_2089_5014">
<rect width="12" height="12" fill="white" transform="translate(6 6)"/>
</clipPath>
</defs>
</svg>
