<svg width="25" height="24" viewBox="0 0 25 24" fill="none" xmlns="http://www.w3.org/2000/svg">
<rect x="7.5" y="4" width="10" height="16" rx="2" fill="#00337B" stroke="#00337B"/>
<circle cx="12.5" cy="15" r="2" fill="#F0F2F6"/>
<circle cx="12.5" cy="9" r="2" fill="#F0F2F6"/>
<path d="M5.41406 13.5H7C7.27614 13.5 7.5 13.7239 7.5 14V16.793L5.06055 14.3535C4.76544 14.0583 4.94286 13.5664 5.33301 13.5059L5.41406 13.5Z" stroke="#00337B"/>
<path d="M19.5859 13.5H18C17.7239 13.5 17.5 13.7239 17.5 14V16.793L19.9395 14.3535C20.2346 14.0583 20.0571 13.5664 19.667 13.5059L19.5859 13.5Z" stroke="#00337B"/>
<path d="M5.41406 7.5H7C7.27614 7.5 7.5 7.72386 7.5 8V10.793L5.06055 8.35352C4.76544 8.05829 4.94286 7.56639 5.33301 7.50586L5.41406 7.5Z" stroke="#00337B"/>
<path d="M19.5859 7.5H18C17.7239 7.5 17.5 7.72386 17.5 8V10.793L19.9395 8.35352C20.2346 8.05829 20.0571 7.56639 19.667 7.50586L19.5859 7.5Z" stroke="#00337B"/>
</svg>
