<svg width="24" height="24" viewBox="0 0 24 24" fill="none" xmlns="http://www.w3.org/2000/svg">
<path d="M9.77561 6.03025L10.316 4.63529C10.4071 4.39911 10.5675 4.19596 10.776 4.05244C10.9846 3.90893 11.2316 3.83174 11.4847 3.83099H12.5153C12.7684 3.83174 13.0154 3.90893 13.224 4.05244C13.4325 4.19596 13.5929 4.39911 13.684 4.63529L14.2244 6.03025L16.0592 7.08589L17.5421 6.85968C17.789 6.82616 18.0404 6.86681 18.2641 6.97646C18.4879 7.0861 18.674 7.2598 18.7988 7.47547L19.3015 8.35517C19.4303 8.57428 19.4897 8.82729 19.4717 9.08082C19.4538 9.33435 19.3594 9.57648 19.201 9.77526L18.2836 10.944V13.0553L19.2261 14.224C19.3845 14.4228 19.4789 14.6649 19.4969 14.9185C19.5148 15.172 19.4555 15.425 19.3267 15.6441L18.824 16.5238C18.6991 16.7395 18.513 16.9132 18.2893 17.0228C18.0655 17.1325 17.8142 17.1731 17.5673 17.1396L16.0843 16.9134L14.2495 17.969L13.7091 19.364C13.618 19.6002 13.4577 19.8033 13.2491 19.9468C13.0406 20.0904 12.7935 20.1675 12.5404 20.1683H11.4847C11.2316 20.1675 10.9846 20.0904 10.776 19.9468C10.5675 19.8033 10.4071 19.6002 10.316 19.364L9.77561 17.969L7.94081 16.9134L6.45788 17.1396C6.21096 17.1731 5.95965 17.1325 5.73588 17.0228C5.51211 16.9132 5.32599 16.7395 5.20117 16.5238L4.69848 15.6441C4.56967 15.425 4.51032 15.172 4.52827 14.9185C4.54622 14.6649 4.64062 14.4228 4.79902 14.224L5.71642 13.0553V10.944L4.77389 9.77526C4.61549 9.57648 4.52109 9.33435 4.50314 9.08082C4.48519 8.82729 4.54454 8.57428 4.67335 8.35517L5.17603 7.47547C5.30086 7.2598 5.48698 7.0861 5.71074 6.97646C5.93451 6.86681 6.18583 6.82616 6.43275 6.85968L7.91567 7.08589L9.77561 6.03025ZM9.48657 11.9996C9.48657 12.4968 9.63398 12.9827 9.91016 13.396C10.1863 13.8094 10.5789 14.1315 11.0382 14.3218C11.4974 14.512 12.0028 14.5618 12.4903 14.4648C12.9779 14.3678 13.4258 14.1284 13.7773 13.7769C14.1288 13.4254 14.3682 12.9775 14.4651 12.49C14.5621 12.0024 14.5123 11.4971 14.3221 11.0378C14.1319 10.5785 13.8097 10.186 13.3964 9.9098C12.9831 9.63362 12.4971 9.48621 12 9.48621C11.3334 9.48621 10.6941 9.75102 10.2227 10.2224C9.75138 10.6937 9.48657 11.333 9.48657 11.9996Z" stroke="#1E1E1E" stroke-linecap="round" stroke-linejoin="round"/>
</svg>
