<svg width="12" height="12" viewBox="0 0 12 12" fill="none" xmlns="http://www.w3.org/2000/svg">
<path fill-rule="evenodd" clip-rule="evenodd" d="M6.60291 3.50614C7.42795 4.33117 7.42795 5.66883 6.60291 6.49386C5.77787 7.3189 4.44022 7.3189 3.61518 6.49386C2.79015 5.66883 2.79015 4.33117 3.61518 3.50614C4.44022 2.6811 5.77787 2.6811 6.60291 3.50614ZM8.11837 7.00004C9.05324 5.59666 8.90164 3.68355 7.66357 2.44548C6.25275 1.03465 3.96535 1.03465 2.55452 2.44548C1.1437 3.8563 1.1437 6.1437 2.55452 7.55452C3.77442 8.77442 5.64969 8.93951 7.04697 8.04979C7.05001 8.05294 7.05308 8.05607 7.05619 8.05918L9.58504 10.588C9.87793 10.8809 10.3528 10.8809 10.6457 10.588C10.9386 10.2951 10.9386 9.82026 10.6457 9.52737L8.11837 7.00004Z" fill="white"/>
</svg>
