<svg width="24" height="24" viewBox="0 0 24 24" fill="none" xmlns="http://www.w3.org/2000/svg">
<path fill-rule="evenodd" clip-rule="evenodd" d="M9.79807 5.76112C9.79807 5.39876 10.0918 5.10501 10.4542 5.10501H13.7347C14.0971 5.10501 14.3908 5.39876 14.3908 5.76112C14.3908 6.12348 14.0971 6.41723 13.7347 6.41723H10.4542C10.0918 6.41723 9.79807 6.12348 9.79807 5.76112ZM7.66364 9.13423H6.84623C6.48387 9.13423 6.19012 8.84048 6.19012 8.47813C6.19012 8.11577 6.48387 7.82202 6.84623 7.82202H17.3439C17.7063 7.82202 18 8.11577 18 8.47813C18 8.84048 17.7063 9.13423 17.3439 9.13423H16.5277L15.8419 17.2544C15.7989 17.764 15.3727 18.1557 14.8612 18.1557H12.0957H9.33013C8.81871 18.1557 8.39251 17.764 8.34947 17.2544L7.66364 9.13423Z" fill="#96A6AE"/>
</svg>
