<svg width="24" height="24" viewBox="0 0 24 24" fill="none" xmlns="http://www.w3.org/2000/svg">
<path fill-rule="evenodd" clip-rule="evenodd" d="M16.2426 11.25C16.6569 11.25 16.9926 11.5858 16.9926 12C16.9926 12.4142 16.6569 12.75 16.2426 12.75L12.75 12.75V16.2426C12.75 16.6569 12.4142 16.9926 12 16.9926C11.5858 16.9926 11.25 16.6569 11.25 16.2426L11.25 12.75H7.75736C7.34315 12.75 7.00736 12.4142 7.00736 12C7.00736 11.5858 7.34315 11.25 7.75736 11.25H11.25L11.25 7.75736C11.25 7.34315 11.5858 7.00736 12 7.00736C12.4142 7.00736 12.75 7.34315 12.75 7.75736L12.75 11.25L16.2426 11.25Z" fill="#96A6AE"/>
</svg>
